<?xml version="1.0" encoding="utf-8"?>
<!-- Generator: Adobe Illustrator 19.0.0, SVG Export Plug-In . SVG Version: 6.00 Build 0)  -->
<svg version="1.1" id="Juaguar_1_" xmlns="http://www.w3.org/2000/svg" xmlns:xlink="http://www.w3.org/1999/xlink" x="0px" y="0px"
	 viewBox="220 234 372 384" style="enable-background:new 220 234 372 384;" xml:space="preserve">
<style type="text/css">
	.st0{fill:#FF0000;}
	.st1{fill:#FCDB0A;}
	.st2{fill:#FFFFFF;}
	.st3{fill-opacity:0;}
	.st4{fill:url(#dTBLzUlrw_1_);}
	.st5{fill:url(#d6BEw7KhXm_1_);}
	.st6{fill:#070707;}
	.st7{fill-opacity:0;stroke:#000000;stroke-width:5;}
</style>
<path id="circles_1_" class="st0" d="M562.4,518.4c0,0-0.7,0.9-2,2.6c-0.7,0.9-1.5,2-2.5,3.2c-0.9,1.3-2.3,2.7-3.7,4.4
	c-0.7,0.8-1.5,1.7-2.3,2.6c-0.8,0.9-1.7,1.8-2.7,2.8c-1.9,1.9-3.9,4-6.3,6.1c-1.2,1.1-2.4,2.2-3.7,3.3c-1.3,1.1-2.7,2.2-4.1,3.4
	c-2.8,2.4-6.1,4.6-9.4,7c-6.9,4.7-14.9,9.4-24.2,13.6c-9.3,4.3-19.8,8-31.5,10.8c-1.5,0.3-2.9,0.6-4.4,1c-1.5,0.3-3,0.7-4.5,0.9
	c-1.5,0.2-3.1,0.5-4.6,0.7c-0.8,0.1-1.6,0.2-2.4,0.4c-0.8,0.1-1.6,0.2-2.4,0.3c-3.2,0.3-6.4,0.8-9.7,0.9c-1.7,0.1-3.3,0.2-5,0.3
	c-1.7,0.1-3.4,0.1-5.1,0.1c-13.7,0.2-28.2-1.4-43.1-5.1c-1.9-0.5-3.7-0.9-5.6-1.4c-1.9-0.6-3.7-1.1-5.6-1.7
	c-0.9-0.3-1.9-0.6-2.8-0.9c-0.9-0.3-1.9-0.7-2.8-1c-1.9-0.7-3.7-1.4-5.6-2c-1.9-0.8-3.7-1.5-5.6-2.3c-0.9-0.4-1.9-0.8-2.8-1.2
	c-0.9-0.4-1.8-0.9-2.8-1.3c-1.9-0.9-3.7-1.8-5.6-2.7c-1.8-1-3.7-2-5.5-3c-0.9-0.5-1.8-1-2.8-1.5c-0.9-0.5-1.8-1.1-2.7-1.6
	c-1.8-1.1-3.6-2.2-5.4-3.4c-1.8-1.2-3.5-2.4-5.3-3.7c-0.9-0.6-1.8-1.2-2.7-1.9l-2.6-2c-1.7-1.3-3.5-2.7-5.2-4
	c-1.7-1.4-3.3-2.9-5-4.3l-1.3-1.1l-0.6-0.5c-0.3-0.3,0.3,0.3-0.8-0.8l-0.3-0.2l-2.1-2l-2.1-2c-0.2-0.2-0.3-0.3-0.5-0.5l-0.7-0.7
	l-1.3-1.4l-2.6-2.8l-1.3-1.4l-1.2-1.3c-1.5-1.8-3.1-3.6-4.6-5.4c-1.4-1.9-2.9-3.8-4.3-5.7c-1.4-2-2.7-4-4.1-6
	c-5.3-8.1-9.9-16.8-13.8-26c-1-2.3-1.9-4.6-2.7-7c-0.4-1.2-0.9-2.4-1.3-3.6l-1.1-3.6c-0.4-1.2-0.7-2.4-1.1-3.6l-0.9-3.7l-0.9-3.7
	l-0.8-3.8c-2-10-3.1-20.4-3.2-30.8c-0.3-20.9,3.9-42.4,12.2-62.5c4.2-10.1,9.4-19.8,15.6-29c1.5-2.3,3.2-4.5,4.9-6.7
	c1.6-2.2,3.4-4.4,5.2-6.5c1.8-2.2,3.6-4.2,5.5-6.2l1.4-1.5l0.7-0.8c-0.4,0.4,1-1,1-1l0.3-0.3l2.4-2.3l0.6-0.6l0.3-0.3
	c0.1-0.1,0.2-0.2,0.4-0.3l1.8-1.7l3.7-3.3c1.2-1,2.3-1.9,3.5-2.8c1.2-0.9,2.3-1.9,3.5-2.7c2.4-1.7,4.8-3.5,7.3-5
	c1.3-0.8,2.5-1.6,3.8-2.4l3.9-2.2c10.4-5.9,21.7-10.2,33.3-13.1l4.4-1l2.2-0.5l2.2-0.4l4.4-0.8l4.5-0.6l2.2-0.3l2.2-0.2l4.5-0.3
	l4.5-0.1l2.3,0l2.3,0l4.5,0.1l4.5,0.3l2.2,0.2l2.2,0.3l4.5,0.5l4.5,0.7l2.2,0.4l2.2,0.5l4.4,1c1.5,0.4,2.9,0.8,4.4,1.2l2.2,0.6
	l2.2,0.7l4.3,1.4l4.2,1.6l2.1,0.8l2.1,0.9l4.1,1.8l4.1,2c2.7,1.3,5.3,2.9,7.9,4.3c5.1,3.1,10.2,6.4,14.9,10.2
	c2.4,1.8,4.7,3.8,6.9,5.8c1.1,1,2.2,2,3.3,3l1.6,1.5l0.8,0.8l0.4,0.4c0.4,0.4-0.3-0.4,1,1l2.3,2.4l0.6,0.6l0.9,1l1.8,2.1l1.8,2.1
	c0.5,0.7,1,1.3,1.5,1.9c1,1.3,2,2.5,2.9,3.8c3.7,5.2,6.9,10.7,9.7,16.4c1.4,2.8,2.6,5.8,3.8,8.7c1.1,3,2.2,5.9,3.1,8.9
	c1.8,6,3.2,12.2,4,18.4c1.6,12.4,1.5,24.9-0.8,37.1c-2.2,12.1-6.5,23.8-12.2,34.5c-2.9,5.3-6.2,10.4-9.9,15.2
	c-3.7,4.8-7.7,9.2-11.9,13.3c-1.3,1.3-0.5,0.5-0.9,0.9l-0.3,0.3l-0.6,0.5l-1.2,1.1l-0.9,0.8L496,478l-2.1,1.8c-0.8,0.6-1.3,1-2,1.5
	l-1.9,1.4c-1.3,0.9-2.6,1.8-3.9,2.6c-5.3,3.4-10.9,6.3-16.7,8.6c-23.2,9.3-48.9,9.3-70.8,0.7c-11-4.2-21-10.4-29.4-17.9l-3.1-2.9
	l-2.9-3l-0.4-0.4c0.1,0.1-2.1-2.2-1.3-1.4l-0.5-0.6l-0.9-1.1l-1.9-2.3c-2-2.6-4.2-5.7-5.9-8.4c-0.7-1.3-1.4-2.6-2.1-3.9
	c-0.7-1.3-1.4-2.6-2-3.9c-4.9-10.7-7.2-22.1-7.2-33.2c0-11.1,2.2-22,6.6-31.7c4.3-9.7,10.5-18.3,17.8-25.1l0.7-0.7l1.2-1.1l0.3-0.2
	l1-0.8l2.1-1.6l0.9-0.6l0.9-0.7l1.9-1.3l1.9-1.3c0.3-0.2,0.7-0.4,1-0.6l0.9-0.5c2.3-1.2,4.6-2.5,7-3.4c1.2-0.5,2.4-1,3.6-1.4
	c1.2-0.4,2.4-0.7,3.7-1.1c2.4-0.8,4.9-1.2,7.4-1.6c1.2-0.3,2.5-0.3,3.7-0.5c1.2-0.1,2.5-0.2,3.7-0.3c1.2,0,2.4,0,3.7,0
	c1.2,0,2.4,0,3.6,0.2c2.4,0.2,4.8,0.4,7.1,0.9c9.3,1.8,17.8,5.5,24.9,10.8c1.8,1.3,3.4,2.8,5,4.1c1.5,1.5,3,3,4.5,4.5
	c0,0,1.3,1.4,0.8,0.9l0.2,0.2l0.3,0.4l0.7,0.9l0.7,0.9l0.5,0.6l0.6,0.8c0.7,1.1,1.5,2.1,2.1,3.2c0.4,0.6,0.6,1,0.9,1.5l0.7,1.5
	c2,3.8,3.3,7.9,4.3,11.9c0.2,1,0.4,2,0.5,3c0.1,0.5,0.2,1,0.2,1.5l0.1,1.5c0.1,1,0.1,2,0.2,3c0,1,0,2,0,3c0,2-0.3,3.9-0.5,5.8
	c-0.1,1-0.3,1.9-0.5,2.8c-0.2,0.9-0.4,1.8-0.6,2.8c-1.1,3.6-2.4,7-4.1,10.2c-0.4,0.8-0.9,1.5-1.3,2.3c-0.5,0.7-1,1.5-1.5,2.2
	c-0.5,0.7-1,1.4-1.5,2.1c-0.5,0.7-1.1,1.3-1.7,1.9c-1.1,1.3-2.3,2.4-3.5,3.5l-0.9,0.8l-0.9,0.8l-0.4,0.3c-0.5,0.4-1,0.7-1.5,1
	l-0.4,0.3l-0.6,0.4l-1.2,0.8l-1.2,0.8c-0.4,0.2-0.8,0.5-1.2,0.7c-1.5,0.7-2.9,1.5-4.4,2c-0.7,0.3-1.5,0.5-2.2,0.8
	c-0.8,0.2-1.5,0.4-2.3,0.6c-1.5,0.4-3,0.6-4.5,0.8c-5.9,0.8-11.6-0.1-16.5-1.8c-4.9-1.7-9.1-4.4-12.3-7.4c-0.9-0.7-1.6-1.6-2.3-2.4
	c-0.4-0.5-0.8-1-1.2-1.4c-0.2-0.3-0.5-0.7-0.7-1c-0.4-0.5-1.1-1.7-1.7-2.6l-0.4-0.7c-0.1-0.2-0.2-0.5-0.3-0.7
	c-0.2-0.5-0.4-0.9-0.6-1.4c-1.5-3.6-2.2-7.2-2.2-10.4c0-3.2,0.6-6,1.3-8.4c1.6-4.8,4.1-7.7,5.7-9.4c0.8-0.9,1.6-1.5,2-1.8
	c0.5-0.4,0.7-0.6,0.7-0.6l2.8,2.8c0,0-0.2,0.2-0.5,0.6c-0.3,0.4-0.9,0.9-1.4,1.7c-1.2,1.6-2.7,4.2-3.5,7.9c-0.3,1.9-0.5,4-0.2,6.3
	c0.3,2.3,1,4.8,2.4,7.2c0.4,0.6,0.7,1.2,1.1,1.7c0.4,0.5,0.7,1.1,1.4,1.7c0.3,0.3,0.6,0.6,0.8,0.9l0.1,0.1c-0.1-0.1,0,0,0,0l0.2,0.2
	l0.4,0.4c0.6,0.5,1.1,1.1,1.8,1.5c2.6,1.9,5.7,3.5,9.2,4.3c3.5,0.8,7.4,1,11.2,0.2c1-0.3,1.9-0.4,2.9-0.8c0.5-0.2,1-0.3,1.4-0.5
	c0.5-0.2,0.9-0.4,1.4-0.7c1-0.4,1.8-1,2.7-1.5c0.4-0.3,0.8-0.6,1.2-0.9c0.4-0.3,0.8-0.5,1.2-1c3.3-3,6.1-6.6,8-11
	c1-2.1,1.6-4.5,2.2-6.8c0.1-0.6,0.2-1.2,0.3-1.8c0.1-0.6,0.2-1.2,0.2-1.8c0-1.2,0.2-2.5,0-3.7c0-0.6-0.1-1.3-0.1-1.9
	c-0.1-0.6-0.2-1.3-0.3-1.9l-0.1-0.9c-0.1-0.3-0.2-0.6-0.2-0.9c-0.2-0.6-0.3-1.3-0.5-1.9c-0.8-2.5-1.8-4.9-3.2-7.2
	c-0.4-0.6-0.7-1.2-1.1-1.7c-0.4-0.5-0.8-1-1.1-1.5c-0.3-0.5-0.9-1.1-1.4-1.6c-0.5-0.5-0.9-1-1.4-1.5c-1.1-0.9-2.1-1.9-3.2-2.8
	c-1.2-0.8-2.3-1.7-3.5-2.5c-4.8-3-10.4-5.1-16.4-5.9c-1.5-0.3-3-0.2-4.5-0.3c-0.8-0.1-1.5,0-2.3,0c-0.8,0-1.5,0.1-2.3,0.1
	c-0.8,0.1-1.5,0.2-2.3,0.3c-0.8,0.1-1.5,0.2-2.3,0.4c-1.5,0.4-3,0.7-4.5,1.3c-0.7,0.3-1.5,0.5-2.2,0.8c-0.7,0.3-1.4,0.7-2.1,1
	c-1.5,0.6-2.8,1.5-4.1,2.3c-0.7,0.4-1.3,0.9-1.9,1.3c-0.6,0.5-1.2,0.9-1.9,1.4l-1.9,1.8l-1,0.9l-0.2,0.2c0.2-0.1-0.1,0.1-0.1,0.1
	l-0.4,0.5c-4.6,4.7-8.3,10.5-10.7,16.9c-2.4,6.4-3.6,13.3-3.2,20.3c0.3,7,2.1,14.1,5.4,20.5c0.3,0.8,0.9,1.6,1.3,2.4l1.4,2.3
	c1,1.5,2.1,2.8,3.1,4.3l2,2.2l1,1.1l0.5,0.5c0.2,0.2,0,0,0.1,0.1l0.3,0.2l2,1.9l2.1,1.8c5.8,4.7,12.5,8.5,19.8,11
	c7.2,2.5,15,3.6,22.8,3.3c7.8-0.3,15.6-2,22.9-5.2c7.3-3.2,14-7.7,19.7-13.4c2.9-2.9,5.5-6,8-9.3c2.4-3.3,4.6-6.8,6.5-10.5
	c7.6-14.7,10.5-32,8-48.6c-0.6-4.2-1.6-8.3-2.9-12.3c-0.6-2-1.4-4-2.1-6c-0.8-1.9-1.7-3.9-2.7-5.8c-1.9-3.8-4.1-7.4-6.6-10.9
	c-0.6-0.9-1.3-1.7-1.9-2.5l-1-1.3l-1-1.2c-0.7-0.8-1.3-1.6-2.1-2.4l-2.3-2.4l-2.3-2.2c-0.8-0.7-1.5-1.5-2.4-2.2
	c-1.6-1.4-3.3-2.8-5-4.1c-3.4-2.7-7-5-10.7-7.2c-1.9-1-3.7-2.2-5.7-3.1l-2.9-1.4l-3-1.3l-1.5-0.6l-1.5-0.6l-3-1.1l-3.1-1l-1.5-0.5
	l-1.6-0.4c-16.6-4.7-34.4-4.9-51.2-1c-8.3,2.1-16.5,5.1-24,9.2c-7.5,4.1-14.6,9-20.7,14.8c-12.5,11.8-22.5,25.9-29.3,41.3
	c-6.8,15.4-10.4,31.9-10.8,48.2c-0.4,16.3,2.4,32.5,7.8,47.2c2.7,7.4,6,14.5,10,21.1c3.9,6.6,8.5,12.8,13.3,18.4
	c0.6,0.7,1.2,1.4,1.8,2.1l2,2.1l2,2.1l0.2,0.3c0,0,0.1,0.1,0.2,0.2l0.5,0.5l1,1c1.3,1.3,2.7,2.6,4,3.9c1.4,1.2,2.8,2.4,4.2,3.6
	l2.1,1.8l2.2,1.7c1.4,1.1,2.9,2.2,4.3,3.3c1.5,1,2.9,2.1,4.4,3.1l2.2,1.5l2.3,1.4c1.5,0.9,3,1.9,4.5,2.8c1.5,0.9,3.1,1.7,4.6,2.6
	c0.8,0.4,1.5,0.9,2.3,1.3c0.8,0.4,1.6,0.8,2.3,1.2c1.5,0.8,3.1,1.5,4.6,2.3c6.3,2.8,12.5,5.4,18.8,7.4c3.1,1.1,6.3,1.9,9.4,2.7
	c1.5,0.5,3.1,0.7,4.7,1.1c1.6,0.3,3.1,0.7,4.7,1c6.2,1.1,12.3,2,18.3,2.5c12,1,23.5,0.6,34.2-0.8c10.7-1.4,20.5-3.8,29.3-6.7
	c8.8-2.9,16.7-6.4,23.6-9.9c13.7-7.2,23.5-14.7,29.8-20c1.6-1.4,3-2.5,4.1-3.6c1.2-1.1,2.2-2,2.9-2.8c1.6-1.5,2.4-2.3,2.4-2.3
	L562.4,518.4z"/>
<g id="Juaguar">
	<polygon class="st1" points="507.2,584.2 507,583.7 506.8,583.1 506.5,582.6 506,582 505.5,581.4 504.9,580.8 504.3,580.1 
		503.5,579.5 502.7,578.8 501.8,578.1 500.7,577.4 499.6,576.7 498.4,576 497.1,575.2 495.7,574.5 494.2,573.7 492.7,572.9 
		491,572.1 490.7,568.9 491.1,570.5 491.2,566.6 491.3,562.8 491.4,558.9 491.5,555.1 491.6,551.2 491.6,547.3 491.6,543.4 
		491.6,539.5 491.6,535.6 491.6,531.7 491.5,527.8 491.4,523.9 491.3,519.9 491.2,516 491.1,512.1 491,508.1 490.8,504.2 
		490.6,500.2 490.4,496.2 490.2,492.2 489.9,488.2 489.7,484.2 489.4,480.2 489.1,476.3 488.8,472.2 488.4,468.2 488.1,464.1 
		487.7,460.1 487.3,456.1 486.9,452 486.5,447.9 486,443.9 485.6,439.8 485.1,435.7 484.6,431.6 484.1,427.5 483.5,423.4 483,419.2 
		482.4,415.1 481.8,411 487.7,331.5 454.9,386.7 453.9,386.6 454.9,386.6 452.3,386.1 449.7,385.5 447.1,385 444.5,384.5 
		441.9,384.1 439.3,383.6 436.7,383.3 434.1,382.9 431.5,382.6 428.9,382.3 426.3,382.1 423.7,381.8 421.1,381.6 418.5,381.5 
		416,381.4 413.4,381.3 410.8,381.2 408.3,381.2 405.7,381.2 403.2,381.3 400.6,381.4 398.1,381.5 395.5,381.6 392.9,381.8 
		390.4,382 387.8,382.2 385.3,382.5 382.7,382.8 380.2,383.1 377.6,383.5 375.1,383.9 372.5,384.3 370,384.8 367.5,385.3 365,385.8 
		362.5,386.3 360,386.9 357.5,387.6 355,388.2 352.9,388.8 351.3,388.9 351.9,390 350.6,388.9 351.3,388.9 319.6,335.7 325.6,415.2 
		316.4,574.7 314.6,575.8 312.8,576.8 311.2,577.8 309.7,578.8 308.4,579.7 307.1,580.6 306,581.4 305,582.2 304.1,583 303.4,583.7 
		302.8,584.4 302.3,585.1 301.9,585.7 301.7,586.3 301.6,586.8 301.6,587.4 301.7,587.8 302,588.3 302.4,588.7 302.9,589.1 
		303.5,589.4 304.3,589.7 305.2,590 306.2,590.2 307.4,590.4 308.6,590.5 310,590.6 311.6,590.7 313.1,590.6 314.9,590.6 
		316.8,590.6 318.8,590.6 320.9,590.5 323.2,590.3 325.6,590.1 328.1,589.9 330.8,589.7 333.6,589.4 336.4,589.1 339.5,588.7 
		344.1,588.2 348.6,587.8 353.1,587.4 357.6,587.1 362,586.9 366.3,586.7 370.7,586.7 374.9,586.6 379.2,586.7 383.3,586.7 
		387.5,586.8 391.6,587 395.5,587.2 399.5,587.4 403.4,587.7 407.3,588 411.1,588.3 414.9,588.6 418.6,588.9 422.3,589.3 426,589.7 
		429.6,590 433.2,590.4 436.7,590.8 440.2,591.2 443.6,591.5 447,591.8 450.3,592.1 453.6,592.4 456.9,592.6 460.1,592.8 463.2,593 
		466.4,593.1 469.5,593.2 472.6,593.2 475.6,593.2 478.6,593.2 481.5,593 484.4,592.8 487.3,592.6 489.1,592.3 490.9,592.1 
		492.6,591.9 494.2,591.6 495.6,591.3 497,591 498.3,590.7 499.5,590.4 500.7,590 501.7,589.7 502.6,589.3 503.4,588.9 504.2,588.5 
		504.9,588.1 505.5,587.7 506,587.2 506.5,586.7 506.8,586.3 507,585.8 507.2,585.3 507.2,584.8 	"/>
	<g>
		<g>
			<path id="gfOobj2jf" class="st2" d="M385.6,445.4c0,11.4-9.3,20.7-20.7,20.7c-11.4,0-20.7-9.3-20.7-20.7s9.3-20.7,20.7-20.7
				C376.3,424.7,385.6,434,385.6,445.4z"/>
		</g>
		<g>
			<g>
				<path id="gfOobj2jf_1_" class="st3" d="M385.6,445.4c0,11.4-9.3,20.7-20.7,20.7c-11.4,0-20.7-9.3-20.7-20.7s9.3-20.7,20.7-20.7
					C376.3,424.7,385.6,434,385.6,445.4z"/>
			</g>
		</g>
	</g>
	<g>
		<g>
			<path id="cwjdz6G1L" class="st2" d="M462.4,444.5c0,11.4-9.3,20.7-20.7,20.7s-20.7-9.3-20.7-20.7c0-11.4,9.3-20.7,20.7-20.7
				S462.4,433.1,462.4,444.5z"/>
		</g>
		<g>
			<g>
				<path id="cwjdz6G1L_1_" class="st3" d="M462.4,444.5c0,11.4-9.3,20.7-20.7,20.7s-20.7-9.3-20.7-20.7c0-11.4,9.3-20.7,20.7-20.7
					S462.4,433.1,462.4,444.5z"/>
			</g>
		</g>
	</g>
	<g>
		<g>
			<linearGradient id="dTBLzUlrw_1_" gradientUnits="userSpaceOnUse" x1="462.6819" y1="378.1305" x2="473.3597" y2="378.1305">
				<stop  offset="0" style="stop-color:#0B0B0B"/>
				<stop  offset="1" style="stop-color:#928028;stop-opacity:0.31"/>
			</linearGradient>
			<path id="dTBLzUlrw" class="st4" d="M483.9,402c-3.8,19,2.3,18.1-0.6,17.5c-5-0.9-9.4-3.7-13.5-8.4l-7.4-8.4l25.5-66.4
				C487.8,367.5,486.4,389.3,483.9,402z"/>
		</g>
	</g>
	<g>
		<g>
			<linearGradient id="d6BEw7KhXm_1_" gradientUnits="userSpaceOnUse" x1="346.4471" y1="381.6124" x2="335.7693" y2="381.6124">
				<stop  offset="0" style="stop-color:#0B0B0B"/>
				<stop  offset="1" style="stop-color:#928028;stop-opacity:0.31"/>
			</linearGradient>
			<path id="d6BEw7KhXm" class="st5" d="M325.3,405.5c3.8,19-2.4,18.1,0.6,17.5c5-0.9,9.4-3.7,13.5-8.4l7.4-8.4L321.2,340
				C321.3,371,322.7,392.8,325.3,405.5z"/>
		</g>
	</g>
	<path class="st6" d="M437.7,491.3c-7.2-0.1-15.9-0.1-24.9-0.2c-3.5-12.8-4.3-31.7-2.3-56.7c0.7-10.5,4-12.3,12.3-18.8
		c8.4-6.5,21.1-10.5,28-18.3c0,0-24.5,13.5-46.6,14.1c-22.1,0.6-38.3-7.8-41.7-9.5c7.7,8.1,18.9,10.1,25.6,14.9
		c4.9,3.4,6,8.3,8.2,17.9c3.2,14.4,4,33.1,2.6,56.4c-10.1-0.1-19.9-0.2-27.8-0.2c-14.5-0.1-25.4,13.2-22.5,27.4
		c1.4,6.8,0.2,1,1.7,8.1c3.1,14.9,16.6,25.4,31.8,24.7c3.3-0.2,6.7-0.3,10.2-0.5c4.2,2.4,6.8,6.1,7.9,11c1.3,5.9,3.2,10.4,1.3,20.8
		c-0.9,5.4,0.8,10.5,4,10.8c3.2,0.3,5.1-3.9,5-10.1c-1.2-12.9-0.7-16.3,1.5-22.8c2.1-6.2,4.4-9.8,7.1-10.9c3.2-0.2,6.4-0.3,9.4-0.4
		c15.4-0.7,28.2-12.1,30.7-27.3c1-6-0.3,2.1,0.6-3.9C462.2,503.9,451.6,491.4,437.7,491.3z"/>
	<path class="st6" d="M485.1,410.9l6-79.3l-4.7-1.5l-32.4,54.5c-34.1-7.6-68-6.8-100.7,2.3l-31.3-52.7l-4.7,1.5l6,79.2
		c-7.9,55-11,108.7-9.2,159.7l5.1-0.2c-1.3-36.6-0.1-74.6,3.7-113.5c4-1.1,7-6.6,7-13.2c0-5-1.7-9.4-4.3-11.7
		c0.8-6.9,1.8-13.7,2.8-20.6l0-0.3l-5.2-68.9l22.8,59.4c0,0.2-0.1,0.5-0.2,0.8l-6.7,7.6l0.1,0.1c-0.4,0.6-0.2,1.2,1,1.9
		c2,1.3,5.3-0.2,7.4-3.4c2.1-3.2,2.1-5.4,0.1-8.1c-0.1-0.2-0.2-0.3-0.3-0.4l-18.6-48.4l26.6,44.7l4.4-2.6l-4.7-7.9
		c31.6-8.7,64.3-9.4,97.3-2.3l-3.5,6l4.4,2.6l30.6-51.5l-21.9,57c0,0-0.1,0.1-0.1,0.1c-2,2.8-1.9,5,0.1,8.1c2,3.2,5.4,4.7,7.4,3.4
		c1.8-1,1.4-1.8,0.2-2.8l-5.7-6.5c-0.1-0.5-0.2-0.9-0.3-1.3l21.5-55.9l-4.8,64.3l0,0.3c1,7.6,2,15.2,2.9,22.7c-3.5,1.7-6,6.8-6,12.9
		c0,7.4,3.8,13.4,8.4,13.4c0.1,0,0.2,0,0.3,0c3.7,39.9,4.9,78.1,3.5,114.3l5.1,0.2C496.1,523.8,493.1,468.7,485.1,410.9z"/>
</g>
<g id="Eyes">
	<g>
		<g>
			<path id="azn9VOgOD" class="st6" d="M378.1,445.4c0,6.9-5.7,12.5-12.7,12.5c-7,0-12.7-5.6-12.7-12.5c0-6.9,5.7-12.4,12.7-12.4
				C372.4,432.9,378.1,438.5,378.1,445.4z"/>
		</g>
		<g>
			<g>
				<path id="azn9VOgOD_1_" class="st7" d="M378.1,445.4c0,6.9-5.7,12.5-12.7,12.5c-7,0-12.7-5.6-12.7-12.5
					c0-6.9,5.7-12.4,12.7-12.4C372.4,432.9,378.1,438.5,378.1,445.4z"/>
			</g>
		</g>
	</g>
	<g>
		<g>
			<path id="b9Zj9llL7H" class="st6" d="M455.4,445.2c0,7.1-5.8,13-13,13s-13-5.8-13-13s5.8-13,13-13S455.4,438,455.4,445.2z"/>
		</g>
		<g>
			<g>
				<path id="b9Zj9llL7H_1_" class="st7" d="M455.4,445.2c0,7.1-5.8,13-13,13s-13-5.8-13-13s5.8-13,13-13S455.4,438,455.4,445.2z"/>
			</g>
		</g>
	</g>
	<g>
		<g>
			<path id="b2zCFVbvXn" class="st2" d="M380.1,493.9c7.5-0.6,23,0.2,32.5,0c7.3-0.2,12.8,0,17.3,0c5.6,0,9.2-0.1,9.6,1.6
				c2.2,10.7-3.2,23.5-6.6,19.3c0.9-3.9-3.8-25.4-3.5-19.6c0.1,2-1.1,3.4-1.8,4.3c-1.3,1.6-3,1.7-4.7,1.7c-1.8,0-3.8-2-6-6
				c0.1,3.7-2,5.5-6.3,5.6c-6.4,0.1-5.7-5.6-5.7-6.3c-0.2,4.8-2.6,7.2-7.1,7.2c-4-0.9-5.9-3.3-5.9-7.3c-0.6,4.4-4,7.8-6.9,7.3
				c-1.9-0.3-3.8-2.3-5.8-5.8c0,7.4,0.1,13.9,0.2,19.5c0.6,4-4.8-3.3-6-9.1c-1.3-5.8-1.9-8.9-1.8-11.4
				C376.8,494,373.6,494.3,380.1,493.9z"/>
		</g>
		<g>
			<g>
				<path id="b2zCFVbvXn_1_" class="st3" d="M380.1,493.9c7.5-0.6,23,0.2,32.5,0c7.3-0.2,12.8,0,17.3,0c5.6,0,9.2-0.1,9.6,1.6
					c2.2,10.7-3.2,23.5-6.6,19.3c0.9-3.9-3.8-25.4-3.5-19.6c0.1,2-1.1,3.4-1.8,4.3c-1.3,1.6-3,1.7-4.7,1.7c-1.8,0-3.8-2-6-6
					c0.1,3.7-2,5.5-6.3,5.6c-6.4,0.1-5.7-5.6-5.7-6.3c-0.2,4.8-2.6,7.2-7.1,7.2c-4-0.9-5.9-3.3-5.9-7.3c-0.6,4.4-4,7.8-6.9,7.3
					c-1.9-0.3-3.8-2.3-5.8-5.8c0,7.4,0.1,13.9,0.2,19.5c0.6,4-4.8-3.3-6-9.1c-1.3-5.8-1.9-8.9-1.8-11.4
					C376.8,494,373.6,494.3,380.1,493.9z"/>
			</g>
		</g>
	</g>
	<g>
		<g>
			<path id="i2KqA6X6p1" class="st2" d="M405,547.8c22.1-0.6,33.6-2.6,34.4-6c1.7-6.9,0.4-13.2-3.9-18.9c-2.3-0.9-3.1,0.8-2.2,5.2
				c0.8,4.4-1,9.4-5.6,14.9c-0.1-6.1-3.2-8.9-9.1-8.3c-5.9,0.6-8.7,4.1-8.3,10.5c-0.7-5.9-2.9-8.8-6.6-8.8c-3.7,0-6,3-6.8,8.7
				c0.6-5.7-1.6-8.5-6.5-8.6c-4.9,0-7.8,2.4-8.6,7.3c0.5-6-1.3-9.2-5.4-9.6c-6.1-0.6-3.1,7.9-4.6,7c-1.5-0.9-4.8-10.8-5-14.8
				c-0.2-3.9,0-8.4-2.8-2.9c-2.7,5.4-4.3,11.2-0.5,17.3C369.8,546.9,383.7,549.3,405,547.8z"/>
		</g>
		<g>
			<g>
				<path id="i2KqA6X6p1_1_" class="st3" d="M405,547.8c22.1-0.6,33.6-2.6,34.4-6c1.7-6.9,0.4-13.2-3.9-18.9
					c-2.3-0.9-3.1,0.8-2.2,5.2c0.8,4.4-1,9.4-5.6,14.9c-0.1-6.1-3.2-8.9-9.1-8.3c-5.9,0.6-8.7,4.1-8.3,10.5
					c-0.7-5.9-2.9-8.8-6.6-8.8c-3.7,0-6,3-6.8,8.7c0.6-5.7-1.6-8.5-6.5-8.6c-4.9,0-7.8,2.4-8.6,7.3c0.5-6-1.3-9.2-5.4-9.6
					c-6.1-0.6-3.1,7.9-4.6,7c-1.5-0.9-4.8-10.8-5-14.8c-0.2-3.9,0-8.4-2.8-2.9c-2.7,5.4-4.3,11.2-0.5,17.3
					C369.8,546.9,383.7,549.3,405,547.8z"/>
			</g>
		</g>
	</g>
</g>
</svg>
